#!OML:ASF E:\I on waltz\AllaLogoMonkeySwing\Project 1\Capture day 1\Session 1\Subject1.ASF
:FULLY-SPECIFIED
:DEGREES
303
root -0.122449 16.3388 16.4721 -4.05336 42.5764 -4.47087
lowerback 16.034 6.80534 4.95031
upperback 0.837389 10.1473 2.49163
thorax -7.61735 4.79893 -2.30595
lowerneck -13.0245 8.29797 6.81476
upperneck 21.3795 13.2762 -11.7597
head 10.2462 5.62115 -3.45134
rclavicle -1.48194e-013 -9.54166e-015
rhumerus -33.2186 22.4196 -106.206
rradius 68.8851
rwrist -7.22521
rhand -11.7245 -30.7492
rfingers 7.12502
rthumb 14.3225 -60.2352
lclavicle -1.48194e-013 -9.54166e-015
lhumerus -49.8244 -1.07884 94.5091
lradius 70.691
lwrist 16.5014
lhand -13.1364 -25.5749
lfingers 7.12502
lthumb 12.9617 4.0025
rfemur -12.1277 -31.4807 22.3634
rtibia 53.3074
rfoot -31.4548 -25.3744
rtoes 15.2392
lfemur -20.9527 -17.5947 -13.8106
ltibia 51.4508
lfoot -30.6076 -22.0287
ltoes -13.2224
304
root -0.107901 16.6787 16.6634 -5.09223 46.8518 -5.6688
lowerback 15.2205 7.30361 5.92737
upperback 0.678247 10.9125 2.28302
thorax -7.07294 5.16231 -3.07203
lowerneck -12.9137 8.43134 7.02287
upperneck 21.797 13.6143 -12.0072
head 10.4486 5.77857 -3.52447
rclavicle 7.35503e-014 -2.70347e-014
rhumerus -35.7108 19.9586 -105.463
rradius 71.7655
rwrist -9.31907
rhand -12.8489 -29.7365
rfingers 7.12502
rthumb 13.2389 -59.2961
lclavicle 7.35503e-014 -2.70347e-014
lhumerus -50.0176 -3.16184 94.917
lradius 72.4487
lwrist 15.8799
lhand -12.7968 -25.9621
lfingers 7.12502
lthumb 13.2891 3.5942
rfemur -10.1311 -31.1744 23.2961
rtibia 50.2186
rfoot -25.734 -27.3143
rtoes 11.7566
lfemur -18.7075 -19.333 -12.8808
ltibia 46.3567
lfoot -23.9528 -26.6495
ltoes -0.976405
305
root -0.0940573 17.0958 16.862 -3.70613 51.8871 -3.90954
lowerback 14.0999 7.85264 4.69432
upperback 0.550046 11.3046 1.53478
thorax -6.63696 5.40523 -3.10714
lowerneck -13.33 8.65413 6.82396
upperneck 23.3172 14.0172 -11.1139
head 11.04 5.9963 -3.10024
rclavicle -3.29983e-014 1.74931e-014
rhumerus -37.9478 17.2026 -104.188
rradius 73.323
rwrist -11.6849
rhand -13.548 -28.2566
rfingers 7.12502
rthumb 12.5649 -57.8588
lclavicle -3.29983e-014 1.74931e-014
lhumerus -49.8101 -3.79191 94.9352
lradius 73.0024
lwrist 13.965
lhand -12.6476 -26.7218
lfingers 7.12502
lthumb 13.4329 2.82507
rfemur -8.97013 -30.6674 22.0888
rtibia 47.71
rfoot -20.1041 -28.5285
rtoes 12.4573
lfemur -16.606 -20.8553 -14.3871
ltibia 41.1004
lfoot -16.9744 -29.088
ltoes 1.91363
306
root -0.0805567 17.5553 17.0729 -2.88237 57.509 -2.9441
lowerback 13.0141 8.09616 3.91882
upperback 0.344534 11.4143 0.913207
thorax -6.26671 5.49228 -3.20379
lowerneck -13.0798 8.74856 7.06763
upperneck 24.4208 14.2256 -10.6286
head 11.4023 6.16982 -2.94297
rclavicle 1.05356e-014 4.25399e-014
rhumerus -40.1979 14.3845 -102.806
rradius 73.8127
rwrist -14.1833
rhand -14.2292 -29.3078
rfingers 7.12502
rthumb 11.9081 -58.9491
lclavicle 1.05356e-014 4.25399e-014
lhumerus -49.6459 -4.31662 94.796
lradius 73.2603
lwrist 12.8787
lhand -12.9397 -27.1194
lfingers 7.12502
lthumb 13.1513 2.44589
rfemur -7.89919 -30.2013 21.7498
rtibia 45.0962
rfoot -12.6053 -29.9843
rtoes 11.8667
lfemur -14.7757 -20.5686 -14.8958
ltibia 35.9923
lfoot -11.7338 -31.3745
ltoes -7.6113
307
root -0.0497028 18.0498 17.2763 -2.08286 63.9472 -1.99625
lowerback 11.9585 7.90736 3.38749
upperback 0.158037 11.006 0.253273
thorax -5.87322 5.31768 -3.38769
lowerneck -12.5593 8.73823 7.49735
upperneck 25.4734 14.2482 -10.1164
head 11.6895 6.30038 -2.84529
rclavicle -1.80894e-014 -3.18055e-015
rhumerus -42.1759 11.2124 -100.888
rradius 72.2953
rwrist -14.9258
rhand -13.1852 -27.9084
rfingers 7.12502
rthumb 12.9147 -57.4888
lclavicle -1.80894e-014 -3.18055e-015
lhumerus -49.2607 -4.29643 94.437
lradius 72.911
lwrist 12.8823
lhand -13.5867 -27.0116
lfingers 7.12502
lthumb 12.5276 2.59287
rfemur -6.692 -29.3286 21.3277
rtibia 41.9045
rfoot -3.79851 -30.7649
rtoes 14.8949
lfemur -13.4986 -18.8555 -15.3317
ltibia 31.2072
lfoot -0.920987 -35.2465
ltoes -11.6765
308
root 0.00401796 18.5536 17.4633 -1.02799 70.9304 -0.559624
lowerback 10.9427 7.40914 2.81756
upperback 0.204069 10.2063 -0.250865
thorax -5.31954 4.96021 -3.33212
lowerneck -11.9985 8.61978 7.62677
upperneck 26.4085 14.068 -9.27789
head 11.8524 6.35829 -2.6128
rclavicle -6.11263e-014 6.75868e-015
rhumerus -43.9773 8.41789 -98.5501
rradius 70.0095
rwrist -14.7721
rhand -12.0594 -28.6612
rfingers 7.12502
rthumb 13.9998 -58.1698
lclavicle -6.11263e-014 6.75868e-015
lhumerus -48.5861 -4.04594 94.2924
lradius 71.9569
lwrist 15.2093
lhand -15.536 -28.3077
lfingers 7.12502
lthumb 10.6478 1.40257
rfemur -5.02553 -27.2758 20.5343
rtibia 37.9223
rfoot 6.30303 -30.5071
rtoes 18.8378
lfemur -11.8324 -16.8195 -16.0519
ltibia 25.2996
lfoot 18.6351 -36.1677
ltoes -2.86297
309
root 0.0724002 19.0323 17.6457 1.0909 78.2983 1.81023
lowerback 9.71537 6.72562 2.05582
upperback 0.344201 9.16169 -0.597045
thorax -4.61943 4.48747 -2.96395
lowerneck -12.0057 8.46156 7.96024
upperneck 27.8019 13.795 -8.36671
head 12.3207 6.3811 -2.37053
rclavicle 6.92143e-014 -4.67144e-015
rhumerus -45.6874 5.77151 -95.8541
rradius 67.1009
rwrist -13.8846
rhand -11.2197 -29.8029
rfingers 7.12502
rthumb 14.8088 -59.2538
lclavicle 6.92143e-014 -4.67144e-015
lhumerus -47.5841 -3.89015 94.1347
lradius 70.7329
lwrist 17.6664
lhand -16.8313 -27.3775
lfingers 7.12502
lthumb 9.39813 2.39297
rfemur -3.69482 -24.2075 20.1162
rtibia 34.6713
rfoot 13.73 -27.0499
rtoes 26.753
lfemur -10.3856 -14.3449 -16.7364
ltibia 19.8924
lfoot 29.4697 -31.7021
ltoes -18.7848
310
root 0.151763 19.4782 17.8084 6.5484 85.6671 7.29567
lowerback 8.68952 5.95776 1.40442
upperback 0.210118 8.05042 -0.771099
thorax -4.31517 3.95784 -2.54517
lowerneck -11.0845 8.05716 7.6278
upperneck 27.8715 12.9904 -6.99264
head 11.9357 6.20437 -1.98067
rclavicle -1.73238e-014 -7.00716e-015
rhumerus -48.1263 3.42598 -93.1481
rradius 64.1
rwrist -13.7885
rhand -11.091 -31.5131
rfingers 7.12502
rthumb 14.9329 -60.9548
lclavicle -1.73238e-014 -7.00716e-015
lhumerus -47.0193 -3.56583 94.0078
lradius 69.6078
lwrist 18.7472
lhand -18.2065 -26.5791
lfingers 7.12502
lthumb 8.07105 3.24675
rfemur -3.14176 -20.4226 20.3238
rtibia 33.0291
rfoot 15.8578 -14.4437
rtoes 15.0701
lfemur -9.83125 -12.31 -17.3391
ltibia 19.1275
lfoot 19.0605 -30.0655
ltoes -36.5953
311
root 0.230989 19.8208 17.9422 -26.8808 93.3768 -26.0612
lowerback 7.79011 5.19708 -0.289669
upperback 0.121952 6.87289 -0.894366
thorax -4.1428 3.41092 -1.53158
lowerneck -10.4647 7.5885 7.42337
upperneck 28.4688 12.2997 -6.06832
head 11.8948 6.03589 -1.73552
rclavicle -6.82942e-014 9.92681e-015
rhumerus -50.7278 1.47739 -90.2346
rradius 61.0955
rwrist -14.8984
rhand -11.4062 -32.6408
rfingers 7.12502
rthumb 14.6291 -62.1048
lclavicle -6.82942e-014 9.92681e-015
lhumerus -47.0276 -3.2309 94.1662
lradius 69.2055
lwrist 18.8143
lhand -19.0891 -25.2609
lfingers 7.12502
lthumb 7.21912 4.59593
rfemur -3.56945 -16.8807 19.8177
rtibia 33.2982
rfoot 11.5124 -7.24583
rtoes 8.43782
lfemur -9.31813 -12.1219 -19.0947
ltibia 19.3593
lfoot 12.2985 -22.2567
ltoes -33.8384
312
root 0.296603 20.0908 18.0692 0.62072 100.091 2.24588
lowerback 7.81175 4.35742 0.982971
upperback 0.179071 5.89368 -0.259042
thorax -4.05213 2.90695 -1.46866
lowerneck -10.2419 7.096 7.11139
upperneck 29.1753 11.5903 -5.17724
head 11.9824 5.83325 -1.46302
rclavicle -6.59158e-014 1.44119e-015
rhumerus -53.1234 -0.904077 -87.2259
rradius 58.1425
rwrist -16.2004
rhand -11.468 -33.9241
rfingers 7.12502
rthumb 14.5696 -63.3924
lclavicle -6.59158e-014 1.44119e-015
lhumerus -46.796 -3.42522 94.4731
lradius 68.9309
lwrist 18.2394
lhand -19.4246 -24.2825
lfingers 7.12502
lthumb 6.89527 5.58522
rfemur -3.54609 -13.7417 22.7503
rtibia 33.4409
rfoot 9.52381 -6.6817
rtoes 11.4809
lfemur -8.31994 -12.4507 -17.2566
ltibia 21.5805
lfoot 5.28101 -14.0549
ltoes -35.0462
313
root 0.35954 20.2925 18.1878 -1.02586 107.214 1.31813
lowerback 7.92475 3.6268 0.314114
upperback 0.309846 4.87111 -0.0989341
thorax -4.07669 2.41555 -0.827369
lowerneck -10.0957 6.53076 6.46747
upperneck 29.7675 10.7873 -4.17576
head 12.0164 5.56829 -1.1018
rclavicle -3.48044e-014 4.96962e-015
rhumerus -55.6716 -3.479 -84.0316
rradius 55.2555
rwrist -17.0771
rhand -10.9902 -34.9073
rfingers 7.12502
rthumb 15.0299 -64.3418
lclavicle -3.48044e-014 4.96962e-015
lhumerus -46.4864 -4.21178 95.0047
lradius 68.8867
lwrist 17.4874
lhand -19.1542 -23.8841
lfingers 7.12502
lthumb 7.15633 5.97493
rfemur -3.4497 -11.8203 22.9211
rtibia 33.6505
rfoot 8.74741 -6.65604
rtoes 20.528
lfemur -7.52249 -10.4554 -18.0553
ltibia 21.0468
lfoot 3.08289 -10.0946
ltoes -34.9595
